<svg width="32" height="32" viewBox="0 0 32 32" fill="none" xmlns="http://www.w3.org/2000/svg">
<g clip-path="url(#clip0_67_338)">
<circle cx="15" cy="16" r="16" fill="white"/>
<path d="M22.5833 14.125H21.695L19.8533 8.5675C19.7009 8.10925 19.4239 7.71327 19.0597 7.43298C18.6955 7.15269 18.2617 7.00157 17.8167 7H16.0833C15.4875 7 15 7.53437 15 8.1875C15 8.84063 15.4875 9.375 16.0833 9.375H17.8167L19.3983 14.125H14.1875L13.7975 12.9375H13.895C14.4908 12.9375 14.9783 12.4031 14.9783 11.75C14.9783 11.0969 14.4908 10.5625 13.895 10.5625H10.6667C10.0708 10.5625 9.58333 11.0969 9.58333 11.75C9.58333 12.4031 10.0708 12.9375 10.6667 12.9375H11.4792L13.4508 18.875H12.725C12.2483 16.2269 10.2225 14.2675 7.6875 14.1369C4.65417 13.9706 2 16.7375 2 20.0625C2 23.3875 4.38333 26 7.41667 26C10.0817 26 12.2375 23.9931 12.725 21.25H17.275C17.7517 23.8981 19.7775 25.8575 22.3125 25.9881C25.3458 26.1425 28 23.3875 28 20.0506C28 16.7375 25.6167 14.125 22.5833 14.125ZM8.5 21.25H10.4717C10.0167 22.7106 8.73833 23.72 7.2 23.6131C5.58583 23.5062 4.2425 22.01 4.16667 20.2288C4.09083 18.1506 5.5425 16.5 7.41667 16.5C8.8575 16.5 10.0383 17.4856 10.4717 18.875H8.5C7.90417 18.875 7.41667 19.4094 7.41667 20.0625C7.41667 20.7156 7.90417 21.25 8.5 21.25ZM17.275 18.875H15.7583L14.9675 16.5H18.25C17.7733 17.1888 17.4267 17.9844 17.275 18.875ZM22.4533 23.625C20.785 23.5538 19.3767 21.9981 19.3333 20.1575C19.3117 19.0175 19.7558 18.02 20.4708 17.355L21.1425 19.3738C21.3483 19.9913 21.9658 20.3119 22.5292 20.0863C23.0925 19.8606 23.385 19.1838 23.1792 18.5663L22.4967 16.5119L22.5075 16.5C22.9418 16.4838 23.3747 16.5642 23.7799 16.7364C24.1851 16.9086 24.5543 17.1691 24.8651 17.502C25.1759 17.835 25.422 18.2335 25.5884 18.6736C25.7548 19.1137 25.8381 19.5861 25.8333 20.0625C25.8333 22.105 24.3383 23.6963 22.4533 23.625Z" fill="url(#paint0_linear_67_338)"/>
</g>
<defs>
<linearGradient id="paint0_linear_67_338" x1="15" y1="7" x2="15" y2="26" gradientUnits="userSpaceOnUse">
<stop stop-color="#FFB60D"/>
<stop offset="1" stop-color="#E59317"/>
</linearGradient>
<clipPath id="clip0_67_338">
<rect width="32" height="32" fill="white"/>
</clipPath>
</defs>
</svg>
